<?xml version="1.0" encoding="utf-8"?>
<!-- Generator: Adobe Illustrator 16.0.4, SVG Export Plug-In . SVG Version: 6.00 Build 0)  -->
<!DOCTYPE svg PUBLIC "-//W3C//DTD SVG 1.1//EN" "http://www.w3.org/Graphics/SVG/1.1/DTD/svg11.dtd">
<svg version="1.1" id="圖層_1" xmlns="http://www.w3.org/2000/svg" xmlns:xlink="http://www.w3.org/1999/xlink" x="0px" y="0px"
	 width="15px" height="11.99px" viewBox="242.5 242.5 15 11.99" enable-background="new 242.5 242.5 15 11.99" xml:space="preserve"
	>
<g>
	<path fill="#FFFFFF" d="M242.785,254.424c1.529-2.843,3.253-4.998,8.207-4.782c0.086,0,0.216,0.13,0.216,0.216v2.154
		c0,0.15,0.216,0.43,0.431,0.216l5.751-4.869c0.087-0.064,0.087-0.194,0-0.258l-5.751-4.567c-0.107-0.086-0.431,0-0.431,0.216v2.154
		c0,0.086-0.13,0.215-0.216,0.215c-8.616,0.862-8.164,7.539-8.487,9.154C242.462,254.445,242.699,254.574,242.785,254.424z"/>
</g>
</svg>
