<?xml version="1.0" encoding="utf-8"?>
<!-- Generator: Adobe Illustrator 16.0.4, SVG Export Plug-In . SVG Version: 6.00 Build 0)  -->
<!DOCTYPE svg PUBLIC "-//W3C//DTD SVG 1.1//EN" "http://www.w3.org/Graphics/SVG/1.1/DTD/svg11.dtd">
<svg version="1.1" id="圖層_1" xmlns="http://www.w3.org/2000/svg" xmlns:xlink="http://www.w3.org/1999/xlink" x="0px" y="0px"
	 width="29.312px" height="17.326px" viewBox="0 0 29.312 17.326" enable-background="new 0 0 29.312 17.326" xml:space="preserve">
<path fill="#C81F25" d="M-14.45,17.329h0.084h29.193h0.156h29.195h0.084h29.193h0.156h29.195h0.084h29.193h0.156h29.195h0.084
	h29.271h0.078h29.273h0.084h29.193h0.156h29.195h0.084h29.275h0.084h29.269h0.084h29.194h0.156h29.195h0.084h29.352V6.438
	c-0.009,0-0.017,0-0.022,0c-2.921,0-4.294-1.199-6.029-2.719C417.603,2.062,415.251,0,410.818,0c-4.437,0-6.787,2.062-8.682,3.719
	c-1.729,1.514-3.098,2.707-5.991,2.717c-2.898-0.008-4.271-1.203-6-2.717C388.249,2.062,385.899,0,381.464,0
	c-4.434,0-6.787,2.062-8.68,3.719c-1.721,1.506-3.088,2.692-5.956,2.715c-2.872-0.021-4.241-1.209-5.963-2.715
	C358.969,2.062,356.618,0,352.185,0c-4.437,0-6.787,2.062-8.682,3.719c-1.729,1.514-3.098,2.707-5.993,2.717
	c-2.896-0.008-4.27-1.203-6-2.717C329.616,2.062,327.266,0,322.831,0c-4.434,0-6.787,2.062-8.68,3.719
	c-1.729,1.512-3.1,2.707-5.992,2.717c-2.898-0.01-4.27-1.203-5.999-2.717C300.265,2.062,297.913,0,293.48,0
	c-4.437,0-6.787,2.062-8.682,3.719c-1.729,1.514-3.098,2.707-5.991,2.717c-2.898-0.008-4.271-1.203-6-2.717
	C270.911,2.062,268.561,0,264.126,0c-4.434,0-6.787,2.062-8.68,3.719c-1.721,1.506-3.088,2.692-5.956,2.715
	c-2.872-0.021-4.241-1.209-5.963-2.715C241.631,2.062,239.28,0,234.847,0c-4.437,0-6.787,2.062-8.682,3.719
	c-1.729,1.514-3.098,2.707-5.993,2.717c-2.896-0.008-4.27-1.203-6-2.717C212.278,2.062,209.927,0,205.493,0
	c-4.434,0-6.787,2.062-8.68,3.719c-1.729,1.514-3.101,2.707-5.995,2.717c-2.9-0.008-4.272-1.203-6.002-2.717
	C182.92,2.062,180.569,0,176.135,0c-4.436,0-6.786,2.062-8.681,3.719c-1.729,1.514-3.098,2.707-5.993,2.717
	c-2.896-0.008-4.27-1.203-6-2.717C153.567,2.062,151.216,0,146.782,0s-6.787,2.062-8.68,3.719c-1.723,1.506-3.088,2.692-5.956,2.715
	c-2.872-0.021-4.241-1.209-5.963-2.715C124.287,2.062,121.936,0,117.502,0s-6.786,2.062-8.68,3.719
	c-1.729,1.514-3.098,2.707-5.993,2.717c-2.896-0.008-4.27-1.203-6-2.717C94.934,2.062,92.583,0,88.149,0s-6.787,2.062-8.68,3.719
	c-1.722,1.506-3.088,2.692-5.956,2.715c-2.872-0.021-4.241-1.209-5.963-2.715C65.654,2.062,63.303,0,58.869,0
	s-6.786,2.062-8.68,3.719c-1.729,1.514-3.098,2.707-5.993,2.717c-2.896-0.008-4.27-1.203-6-2.717C36.302,2.062,33.95,0,29.516,0
	c-4.435,0-6.787,2.062-8.68,3.719c-1.723,1.506-3.089,2.692-5.956,2.715c-2.872-0.021-4.241-1.209-5.964-2.715
	C7.021,2.062,4.671,0,0.236,0s-6.787,2.062-8.68,3.719c-1.729,1.514-3.099,2.707-5.993,2.717c-2.897-0.008-4.271-1.203-6-2.717
	C-22.332,2.062-24.683,0-29.116,0c-4.436,0-6.787,2.062-8.681,3.719c-1.733,1.519-3.104,2.717-6.021,2.719v10.892H-14.45z"/>
</svg>
